<svg xmlns="http://www.w3.org/2000/svg" viewBox="0 0 8.75 6.81"><defs><style>.cls-1{fill:#fff;}</style></defs><title>icono</title><g id="Capa_2" data-name="Capa 2"><g id="Capa_1-2" data-name="Capa 1"><path class="cls-1" d="M4.36,1H.61A.83.83,0,0,1,.23.87.4.4,0,0,1,0,.43.45.45,0,0,1,.33,0,.75.75,0,0,1,.59,0H8.16A.93.93,0,0,1,8.4,0a.49.49,0,0,1,.35.44.49.49,0,0,1-.33.46.92.92,0,0,1-.29,0Z"/><path class="cls-1" d="M3.4,3.89H.61a.82.82,0,0,1-.38-.09A.42.42,0,0,1,0,3.33.46.46,0,0,1,.35,3a.74.74,0,0,1,.26,0H6.19A.93.93,0,0,1,6.53,3a.46.46,0,0,1,.27.47.5.5,0,0,1-.38.42,1.18,1.18,0,0,1-.26,0Z"/><path class="cls-1" d="M2.43,6.81H.59a.76.76,0,0,1-.3,0A.5.5,0,0,1,0,6.29a.49.49,0,0,1,.35-.42.59.59,0,0,1,.23,0H4.27A.58.58,0,0,1,4.74,6a.43.43,0,0,1,.08.49.52.52,0,0,1-.49.3H2.43Z"/></g></g></svg>