<svg xmlns="http://www.w3.org/2000/svg" viewBox="0 0 82.28 63.98"><defs><style>.cls-1{fill:#fff;}</style></defs><title>icono-menu</title><g id="Capa_2" data-name="Capa 2"><g id="Capa_1-2" data-name="Capa 1"><path class="cls-1" d="M41,9.17c-11.76,0-23.52,0-35.28,0a7.87,7.87,0,0,1-3.56-.91A4,4,0,0,1,.05,4.08,4.36,4.36,0,0,1,3.12.37,7.26,7.26,0,0,1,5.53,0H76.74A8.22,8.22,0,0,1,79,.32,4.63,4.63,0,0,1,82.28,4.4a4.75,4.75,0,0,1-3.13,4.38,9,9,0,0,1-2.74.37Q58.69,9.18,41,9.17Z"/><path class="cls-1" d="M31.94,36.53c-8.75,0-17.49,0-26.24,0a7.85,7.85,0,0,1-3.57-.88,4,4,0,0,1-2-4.31,4.32,4.32,0,0,1,3.21-3.58,8.25,8.25,0,0,1,2.43-.28q26.25,0,52.49,0A8.57,8.57,0,0,1,61.4,28a4.31,4.31,0,0,1,2.54,4.38,4.73,4.73,0,0,1-3.63,4,13.28,13.28,0,0,1-2.45.16Z"/><path class="cls-1" d="M22.81,64c-5.75,0-11.49,0-17.24,0a7.92,7.92,0,0,1-2.86-.52A4.7,4.7,0,0,1,0,59.09a4.67,4.67,0,0,1,3.23-4,7.86,7.86,0,0,1,2.26-.32q17.31,0,34.63,0a5.51,5.51,0,0,1,4.43,1.71,4,4,0,0,1,.71,4.57A4.71,4.71,0,0,1,40.69,64c-4.1,0-8.2,0-12.3,0Z"/></g></g></svg>